<svg xmlns="http://www.w3.org/2000/svg" viewBox="0 0 1030 1680">
  <g transform="translate(0,1680) scale(1,-1)" fill="#000000" stroke="none">
    <path d="M648 1626 c-352 -144 -513 -308 -543 -551 l-7 -57 -32 31 c-18 17 -37 31 -44 31 -82 0 133 -578 337 -910 53 -86 126 -170 147 -170 36 0 21 99 -42 280 -24 70 -44 130 -44 133 0 2 17 1 38 -4 104 -24 271 -3 495 62 67 20 67 20 67 56 0 84 -76 175 -177 213 -30 11 -96 25 -146 32 l-92 11 64 61 c196 188 268 399 211 621 -24 95 -79 199 -106 203 -10 1 -67 -17 -126 -42z"/>
  </g>
</svg>
